<svg width="90" height="110" viewBox="0 0 90 110" fill="none" xmlns="http://www.w3.org/2000/svg">
<path d="M0 0H90V31H31C13.8792 31 0 17.1208 0 0V0Z" fill="black"/>
<path d="M54 39H90V74C90 93.8822 73.8823 110 54 110V110V39Z" fill="black"/>
<rect x="14" y="83" width="40" height="27" fill="black"/>
<path d="M55.5 67C55 72.6667 50.9 84 38.5 84H55.5V67Z" fill="black" stroke="black"/>
<ellipse cx="49.5" cy="83.5" rx="4.5" ry="1.5" fill="black"/>
<ellipse cx="54" cy="78.5" rx="1" ry="4.5" fill="black"/>
<path d="M50 80L54.3301 83H45.6699L50 80Z" fill="black"/>
<path d="M50 80L53 76.5359V83.4641L50 80Z" fill="black"/>
<ellipse cx="54" cy="79" rx="2" ry="4" fill="black"/>
</svg>
